<svg xmlns="http://www.w3.org/2000/svg" width="47.5" height="47.4" viewBox="0 0 23.75 23.7">
  <defs>
    <style>
      .cls-1 {
        fill: #fff;
        fill-rule: evenodd;
      }
    </style>
  </defs>
  <path id="Forma_1" data-name="Forma 1" class="cls-1" d="M1482.43,10924.1a11.634,11.634,0,0,1-11.66,11.6,11.83,11.83,0,0,1-5.63-1.4l-6.45,2,2.1-6.2a11.4,11.4,0,0,1-1.67-6A11.656,11.656,0,0,1,1482.43,10924.1Zm-11.66-9.7a9.8,9.8,0,0,0-9.8,9.7,9.474,9.474,0,0,0,1.87,5.7l-1.22,3.7,3.76-1.2a9.922,9.922,0,0,0,5.39,1.6A9.75,9.75,0,1,0,1470.77,10914.4Zm5.89,12.4a1.325,1.325,0,0,0-.55-0.3,9.115,9.115,0,0,0-1.95-.9c-0.27-.1-0.46-0.2-0.65.1a14.051,14.051,0,0,1-.9,1.1,0.474,0.474,0,0,1-.62.1,12.19,12.19,0,0,1-2.3-1.4,9.324,9.324,0,0,1-1.59-2,0.458,0.458,0,0,1,.13-0.6,2.5,2.5,0,0,0,.43-0.5,1.944,1.944,0,0,0,.28-0.4,0.5,0.5,0,0,0-.02-0.5c-0.07-.2-0.64-1.6-0.88-2.1-0.24-.6-0.48-0.5-0.64-0.5h-0.55a0.906,0.906,0,0,0-.76.3,3.264,3.264,0,0,0-1,2.4,5.4,5.4,0,0,0,1.16,2.9,11.438,11.438,0,0,0,4.88,4.3c2.91,1.1,2.91.7,3.43,0.7a2.879,2.879,0,0,0,1.93-1.3A2.552,2.552,0,0,0,1476.66,10926.8Z" transform="translate(-1458.69 -10912.6)"/>
</svg>
