<svg xmlns="http://www.w3.org/2000/svg" width="28.94" height="28.94" viewBox="0 0 14.47 14.47">
  <defs>
    <style>
      .cls-1 {
        fill: #e31e24;
        fill-rule: evenodd;
      }
    </style>
  </defs>
  <path id="Forma_1" data-name="Forma 1" class="cls-1" d="M1240.96,3872.52h-5.43a4.524,4.524,0,0,0-4.53,4.52v5.43a4.532,4.532,0,0,0,4.53,4.53h5.43a4.524,4.524,0,0,0,4.52-4.53v-5.43A4.515,4.515,0,0,0,1240.96,3872.52Zm3.17,9.95a3.171,3.171,0,0,1-3.17,3.17h-5.43a3.171,3.171,0,0,1-3.17-3.17v-5.43a3.177,3.177,0,0,1,3.17-3.17h5.43a3.177,3.177,0,0,1,3.17,3.17v5.43Zm-5.89-6.33a3.62,3.62,0,1,0,3.62,3.62A3.619,3.619,0,0,0,1238.24,3876.14Zm0,5.88a2.265,2.265,0,1,1,2.27-2.26A2.258,2.258,0,0,1,1238.24,3882.02Zm3.89-6.64a0.485,0.485,0,1,1-.48.49A0.491,0.491,0,0,1,1242.13,3875.38Z" transform="translate(-1231 -3872.53)"/>
</svg>
